<svg xmlns="http://www.w3.org/2000/svg" width="37" height="35" viewBox="0 0 37 35"><g><g><path fill="#fff" d="M1.145-.015c.64 0 1.157.522 1.157 1.167 0 .644-.518 1.167-1.157 1.167A1.162 1.162 0 0 1-.01 1.152c0-.645.518-1.167 1.156-1.167zm6.949 0c.634 0 1.147.522 1.147 1.167 0 .644-.513 1.167-1.147 1.167a1.157 1.157 0 0 1-1.148-1.167c0-.645.514-1.167 1.148-1.167zm6.93 0c.64 0 1.157.522 1.157 1.167 0 .644-.518 1.167-1.157 1.167a1.162 1.162 0 0 1-1.156-1.167c0-.645.518-1.167 1.156-1.167zm6.94 0c.639 0 1.156.522 1.156 1.167 0 .644-.517 1.167-1.156 1.167a1.162 1.162 0 0 1-1.157-1.167c0-.645.518-1.167 1.157-1.167zm6.93 0c.634 0 1.148.522 1.148 1.167 0 .644-.514 1.167-1.148 1.167a1.157 1.157 0 0 1-1.147-1.167c0-.645.514-1.167 1.147-1.167zm6.949 0c.639 0 1.156.522 1.156 1.167 0 .644-.517 1.167-1.156 1.167a1.162 1.162 0 0 1-1.157-1.167c0-.645.518-1.167 1.157-1.167zM1.145 6.513c.64 0 1.157.523 1.157 1.167 0 .645-.518 1.168-1.157 1.168A1.162 1.162 0 0 1-.01 7.68c0-.644.518-1.167 1.156-1.167zm6.949 0c.634 0 1.147.523 1.147 1.167 0 .645-.513 1.168-1.147 1.168A1.157 1.157 0 0 1 6.946 7.68c0-.644.514-1.167 1.148-1.167zm6.93 0c.64 0 1.157.523 1.157 1.167 0 .645-.518 1.168-1.157 1.168a1.162 1.162 0 0 1-1.156-1.168c0-.644.518-1.167 1.156-1.167zm6.94 0c.639 0 1.156.523 1.156 1.167 0 .645-.517 1.168-1.156 1.168a1.162 1.162 0 0 1-1.157-1.168c0-.644.518-1.167 1.157-1.167zm6.93 0c.634 0 1.148.523 1.148 1.167 0 .645-.514 1.168-1.148 1.168a1.157 1.157 0 0 1-1.147-1.168c0-.644.514-1.167 1.147-1.167zm6.949 0c.639 0 1.156.523 1.156 1.167 0 .645-.517 1.168-1.156 1.168a1.162 1.162 0 0 1-1.157-1.168c0-.644.518-1.167 1.157-1.167zM1.145 13.06a1.157 1.157 0 1 1-.001 2.315 1.157 1.157 0 0 1 .001-2.315zm6.949 0c.634 0 1.147.519 1.147 1.158 0 .64-.513 1.158-1.147 1.158a1.153 1.153 0 0 1-1.148-1.158c0-.64.514-1.158 1.148-1.158zm6.93 0a1.157 1.157 0 1 1-.001 2.315 1.157 1.157 0 0 1 .001-2.315zm6.94 0a1.157 1.157 0 1 1-.002 2.315 1.157 1.157 0 0 1 .002-2.315zm6.93 0c.634 0 1.148.519 1.148 1.158 0 .64-.514 1.158-1.148 1.158a1.153 1.153 0 0 1-1.147-1.158c0-.64.514-1.158 1.147-1.158zm6.949 0a1.157 1.157 0 1 1-.002 2.315 1.157 1.157 0 0 1 .002-2.315zM1.145 19.607a1.157 1.157 0 1 1-.001 2.314 1.157 1.157 0 0 1 .001-2.314zm6.949 0c.634 0 1.147.518 1.147 1.158 0 .64-.513 1.158-1.147 1.158a1.153 1.153 0 0 1-1.148-1.158c0-.64.514-1.158 1.148-1.158zm6.93 0a1.157 1.157 0 1 1-.001 2.314 1.157 1.157 0 0 1 .001-2.314zm6.94 0a1.157 1.157 0 1 1-.002 2.314 1.157 1.157 0 0 1 .002-2.314zm6.93 0c.634 0 1.148.518 1.148 1.158 0 .64-.514 1.158-1.148 1.158a1.153 1.153 0 0 1-1.147-1.158c0-.64.514-1.158 1.147-1.158zm6.949 0a1.157 1.157 0 1 1-.002 2.314 1.157 1.157 0 0 1 .002-2.314zM1.145 26.135a1.157 1.157 0 1 1-.001 2.315 1.157 1.157 0 0 1 .001-2.315zm6.949 0c.634 0 1.147.519 1.147 1.158 0 .64-.513 1.158-1.147 1.158a1.153 1.153 0 0 1-1.148-1.158c0-.64.514-1.158 1.148-1.158zm6.93 0a1.157 1.157 0 1 1-.001 2.315 1.157 1.157 0 0 1 .001-2.315zm6.94 0a1.157 1.157 0 1 1-.002 2.315 1.157 1.157 0 0 1 .002-2.315zm6.93 0c.634 0 1.148.519 1.148 1.158 0 .64-.514 1.158-1.148 1.158a1.153 1.153 0 0 1-1.147-1.158c0-.64.514-1.158 1.147-1.158zm6.949 0a1.157 1.157 0 1 1-.002 2.315 1.157 1.157 0 0 1 .002-2.315zM1.145 32.682a1.157 1.157 0 1 1-.001 2.315 1.157 1.157 0 0 1 .001-2.315zm6.949 0c.634 0 1.147.519 1.147 1.158 0 .64-.513 1.158-1.147 1.158a1.153 1.153 0 0 1-1.148-1.158c0-.64.514-1.158 1.148-1.158zm6.93 0a1.157 1.157 0 1 1-.001 2.315 1.157 1.157 0 0 1 .001-2.315zm6.94 0a1.157 1.157 0 1 1-.002 2.315 1.157 1.157 0 0 1 .002-2.315zm6.93 0c.634 0 1.148.519 1.148 1.158 0 .64-.514 1.158-1.148 1.158a1.153 1.153 0 0 1-1.147-1.158c0-.64.514-1.158 1.147-1.158zm6.949 0a1.157 1.157 0 1 1-.002 2.315 1.157 1.157 0 0 1 .002-2.315z"/></g></g></svg>