<svg xmlns="http://www.w3.org/2000/svg" width="88" height="29" viewBox="0 0 88 29"><g><g><path fill="#fff" d="M85.926 15.498l2.087-2.73c-6.39-4.704-10.57-4.704-16.962 0-6.513 4.795-11.431 4.614-17.7 0-6.105-4.492-12.046-4.704-18.435 0-6.74 4.96-11.186 4.433-17.21 0-6.39-4.704-11.553-4.52-17.699 0l2.086 2.73c5.058-3.722 8.472-3.722 13.527 0 7.593 5.586 13.786 5.586 21.381 0 4.998-3.679 9.265-3.679 14.264 0 7.666 5.641 14.206 5.641 21.871 0 5.14-3.784 7.653-3.784 12.79 0zm0-9.258l2.087-2.73c-6.39-4.704-10.57-4.704-16.962 0-6.513 4.795-11.431 4.614-17.7 0-6.105-4.492-12.046-4.704-18.435 0-6.74 4.959-11.186 4.433-17.21 0-6.39-4.704-11.553-4.523-17.699 0l2.086 2.73c5.058-3.722 8.472-3.722 13.527 0 7.593 5.586 13.786 5.586 21.381 0 4.998-3.681 9.265-3.681 14.264 0 7.666 5.641 14.206 5.641 21.871 0 5.14-3.784 7.653-3.784 12.79 0zM.007 22.027l2.086 2.729c5.058-3.721 8.472-3.721 13.527 0 7.593 5.59 13.786 5.59 21.381 0 4.998-3.679 9.265-3.679 14.264 0 7.666 5.644 14.206 5.641 21.871 0 5.14-3.78 7.653-3.78 12.79 0l2.087-2.73c-6.39-4.703-10.57-4.703-16.962 0-6.513 4.798-11.431 4.617-17.7 0-6.105-4.491-12.046-4.703-18.435 0-6.74 4.96-11.186 4.436-17.21 0-6.389-4.703-11.553-4.52-17.699 0z"/></g></g></svg>